<?xml version="1.0" encoding="UTF-8" standalone="no"?>
<!DOCTYPE svg PUBLIC "-//W3C//DTD SVG 1.1//EN" "http://www.w3.org/Graphics/SVG/1.1/DTD/svg11.dtd">
<svg width="100%" height="100%" viewBox="0 0 212 49" version="1.1" xmlns="http://www.w3.org/2000/svg" xmlns:xlink="http://www.w3.org/1999/xlink" xml:space="preserve" xmlns:serif="http://www.serif.com/" style="fill-rule:evenodd;clip-rule:evenodd;stroke-linejoin:round;stroke-miterlimit:2;">
    <g transform="matrix(1,0,0,1,-773.887,-939.482)">
        <g transform="matrix(2.55389,0,0,2.55389,-2871.95,-871.945)">
            <path d="M1455.03,721L1452.76,721L1452.02,722.747L1450.19,722.747L1454.26,714.215L1455.8,714.215L1456.92,722.747L1455.18,722.747L1455.03,721ZM1453.38,719.565L1454.91,719.565L1454.67,716.541L1453.38,719.565Z" style="fill:url(#_Linear1);fill-rule:nonzero;"/>
            <path d="M1464.62,714.215L1463.62,720.075C1463.5,720.961 1463.17,721.653 1462.63,722.149C1462.09,722.645 1461.38,722.885 1460.51,722.87C1459.69,722.854 1459.07,722.596 1458.64,722.096C1458.22,721.596 1458.06,720.922 1458.16,720.075L1459.15,714.215L1460.84,714.215L1459.86,720.08L1459.83,720.584C1459.83,721.131 1460.11,721.414 1460.65,721.434C1461.02,721.446 1461.32,721.346 1461.53,721.135C1461.74,720.924 1461.88,720.573 1461.94,720.08L1462.93,714.215L1464.62,714.215Z" style="fill:url(#_Linear2);fill-rule:nonzero;"/>
            <path d="M1464.38,722.747L1465.85,714.215L1467.95,714.221C1468.58,714.237 1469.1,714.399 1469.53,714.707C1469.96,715.016 1470.26,715.444 1470.45,715.991C1470.63,716.538 1470.68,717.149 1470.6,717.825L1470.41,719.073C1470.24,720.221 1469.82,721.12 1469.16,721.768C1468.51,722.416 1467.68,722.743 1466.68,722.747L1464.38,722.747ZM1467.29,715.651L1466.3,721.317L1466.72,721.329C1467.3,721.329 1467.75,721.16 1468.07,720.822C1468.39,720.484 1468.61,719.94 1468.72,719.19L1468.92,717.807C1468.97,717.358 1468.99,717.03 1468.98,716.823C1468.96,716.432 1468.86,716.143 1468.68,715.955C1468.5,715.768 1468.24,715.668 1467.88,715.657L1467.29,715.651Z" style="fill:url(#_Linear3);fill-rule:nonzero;"/>
            <path d="M1472.76,722.747L1471.08,722.747L1472.56,714.215L1474.24,714.215L1472.76,722.747Z" style="fill:url(#_Linear4);fill-rule:nonzero;"/>
            <path d="M1477.16,722.864C1476.41,722.848 1475.82,722.602 1475.38,722.125C1474.94,721.649 1474.7,720.987 1474.66,720.139C1474.64,719.846 1474.65,719.549 1474.69,719.248L1474.91,717.83C1475.02,717.073 1475.24,716.401 1475.57,715.815C1475.9,715.229 1476.31,714.793 1476.8,714.508C1477.29,714.223 1477.84,714.086 1478.45,714.098C1479.21,714.114 1479.8,714.372 1480.23,714.874C1480.66,715.376 1480.9,716.063 1480.93,716.934C1480.94,717.262 1480.92,717.573 1480.88,717.866L1480.68,719.172C1480.51,720.344 1480.11,721.257 1479.5,721.912C1478.88,722.566 1478.1,722.883 1477.16,722.864ZM1479.19,717.807C1479.24,717.405 1479.26,717.094 1479.26,716.875C1479.24,716.004 1478.93,715.557 1478.32,715.534C1477.85,715.514 1477.47,715.691 1477.19,716.064C1476.9,716.437 1476.7,717.022 1476.59,717.819L1476.38,719.254C1476.33,719.641 1476.32,719.944 1476.33,720.163C1476.35,720.983 1476.67,721.407 1477.3,721.434C1477.74,721.45 1478.11,721.286 1478.39,720.942C1478.68,720.598 1478.88,720.036 1478.99,719.254L1479.19,717.807Z" style="fill:url(#_Linear5);fill-rule:nonzero;"/>
            <path d="M1488.86,722.747L1483.98,722.747L1484.17,721.51L1486.8,718.639C1487.52,717.842 1487.91,717.159 1487.96,716.588L1487.97,716.278C1487.97,716.032 1487.92,715.834 1487.83,715.686C1487.74,715.538 1487.6,715.461 1487.42,715.457C1486.89,715.446 1486.56,715.881 1486.42,716.764L1486.4,716.899L1484.79,716.905C1484.83,716.389 1484.97,715.912 1485.22,715.472C1485.47,715.033 1485.8,714.692 1486.21,714.45C1486.62,714.207 1487.08,714.088 1487.57,714.092C1488.27,714.108 1488.8,714.333 1489.17,714.769C1489.54,715.205 1489.7,715.776 1489.63,716.483C1489.6,716.889 1489.48,717.288 1489.28,717.681C1489.08,718.074 1488.8,718.489 1488.42,718.926L1487.61,719.805L1486.31,721.37L1489.08,721.37L1488.86,722.747Z" style="fill:url(#_Linear6);fill-rule:nonzero;"/>
            <path d="M1494.66,721.317L1497.59,721.317L1497.34,722.747L1492.73,722.747L1494.2,714.215L1495.89,714.215L1494.66,721.317Z" style="fill:url(#_Linear7);fill-rule:nonzero;"/>
            <path d="M1503.28,719.055L1500.68,719.055L1500.29,721.317L1503.37,721.317L1503.12,722.747L1498.36,722.747L1499.84,714.215L1504.59,714.215L1504.34,715.651L1501.27,715.651L1500.92,717.666L1503.53,717.666L1503.28,719.055Z" style="fill:url(#_Linear8);fill-rule:nonzero;"/>
            <path d="M1504.13,722.747L1505.61,714.215L1507.71,714.221C1508.33,714.237 1508.86,714.399 1509.28,714.707C1509.71,715.016 1510.02,715.444 1510.2,715.991C1510.39,716.538 1510.44,717.149 1510.35,717.825L1510.17,719.073C1509.99,720.221 1509.58,721.12 1508.92,721.768C1508.26,722.416 1507.44,722.743 1506.44,722.747L1504.13,722.747ZM1507.04,715.651L1506.06,721.317L1506.48,721.329C1507.06,721.329 1507.51,721.16 1507.83,720.822C1508.15,720.484 1508.36,719.94 1508.47,719.19L1508.67,717.807C1508.73,717.358 1508.75,717.03 1508.74,716.823C1508.72,716.432 1508.62,716.143 1508.44,715.955C1508.26,715.768 1507.99,715.668 1507.64,715.657L1507.04,715.651Z" style="fill:url(#_Linear9);fill-rule:nonzero;"/>
        </g>
        <g transform="matrix(1,0,0,1,-83.1095,469.136)">
            <path d="M881.194,470.346C894.549,470.346 905.392,481.189 905.392,494.544C905.392,507.899 894.549,518.741 881.194,518.741C867.839,518.741 856.997,507.899 856.997,494.544C856.997,481.189 867.839,470.346 881.194,470.346ZM881.194,473.323C892.907,473.323 902.415,482.832 902.415,494.544C902.415,506.256 892.907,515.765 881.194,515.765C869.482,515.765 859.973,506.256 859.973,494.544C859.973,482.832 869.482,473.323 881.194,473.323Z" style="fill:url(#_Linear10);"/>
        </g>
        <g transform="matrix(1,0,0,1,-85.0941,395.127)">
            <clipPath id="_clip11">
                <path d="M881.613,570.704C882.205,570.704 882.685,571.184 882.685,571.775L882.685,578.235C882.685,578.827 882.205,579.307 881.613,579.307L879.47,579.307C878.878,579.307 878.398,578.827 878.398,578.235L878.398,571.775C878.398,571.184 878.878,570.704 879.47,570.704L881.613,570.704ZM888.699,559.752C889.291,559.752 889.771,560.232 889.771,560.824L889.771,578.235C889.771,578.827 889.291,579.307 888.699,579.307L886.556,579.307C885.964,579.307 885.484,578.827 885.484,578.235L885.484,560.824C885.484,560.232 885.964,559.752 886.556,559.752L888.699,559.752ZM895.581,566.185C896.173,566.185 896.653,566.665 896.653,567.256L896.653,578.235C896.653,578.827 896.173,579.307 895.581,579.307L893.438,579.307C892.846,579.307 892.366,578.827 892.366,578.235L892.366,567.256C892.366,566.665 892.846,566.185 893.438,566.185L895.581,566.185ZM874.732,557.099C875.323,557.099 875.803,557.58 875.803,558.171L875.803,578.235C875.803,578.827 875.323,579.307 874.732,579.307L872.588,579.307C871.997,579.307 871.517,578.827 871.517,578.235L871.517,558.171C871.517,557.58 871.997,557.099 872.588,557.099L874.732,557.099Z"/>
            </clipPath>
            <g clip-path="url(#_clip11)">
                <circle cx="883.19" cy="568.549" r="21.734" style="fill:url(#_Linear12);"/>
            </g>
        </g>
    </g>
    <defs>
        <linearGradient id="_Linear1" x1="0" y1="0" x2="1" y2="0" gradientUnits="userSpaceOnUse" gradientTransform="matrix(103.769,0,0,27.5252,1426.69,718.864)"><stop offset="0" style="stop-color:rgb(131,211,230);stop-opacity:1"/><stop offset="0.01" style="stop-color:rgb(119,100,172);stop-opacity:1"/><stop offset="1" style="stop-color:rgb(168,73,155);stop-opacity:1"/></linearGradient>
        <linearGradient id="_Linear2" x1="0" y1="0" x2="1" y2="0" gradientUnits="userSpaceOnUse" gradientTransform="matrix(103.769,0,0,27.5252,1426.69,718.864)"><stop offset="0" style="stop-color:rgb(131,211,230);stop-opacity:1"/><stop offset="0.01" style="stop-color:rgb(119,100,172);stop-opacity:1"/><stop offset="1" style="stop-color:rgb(168,73,155);stop-opacity:1"/></linearGradient>
        <linearGradient id="_Linear3" x1="0" y1="0" x2="1" y2="0" gradientUnits="userSpaceOnUse" gradientTransform="matrix(103.769,0,0,27.5252,1426.69,718.864)"><stop offset="0" style="stop-color:rgb(131,211,230);stop-opacity:1"/><stop offset="0.01" style="stop-color:rgb(119,100,172);stop-opacity:1"/><stop offset="1" style="stop-color:rgb(168,73,155);stop-opacity:1"/></linearGradient>
        <linearGradient id="_Linear4" x1="0" y1="0" x2="1" y2="0" gradientUnits="userSpaceOnUse" gradientTransform="matrix(103.769,0,0,27.5252,1426.69,718.864)"><stop offset="0" style="stop-color:rgb(131,211,230);stop-opacity:1"/><stop offset="0.01" style="stop-color:rgb(119,100,172);stop-opacity:1"/><stop offset="1" style="stop-color:rgb(168,73,155);stop-opacity:1"/></linearGradient>
        <linearGradient id="_Linear5" x1="0" y1="0" x2="1" y2="0" gradientUnits="userSpaceOnUse" gradientTransform="matrix(103.769,0,0,27.5252,1426.69,718.864)"><stop offset="0" style="stop-color:rgb(131,211,230);stop-opacity:1"/><stop offset="0.01" style="stop-color:rgb(119,100,172);stop-opacity:1"/><stop offset="1" style="stop-color:rgb(168,73,155);stop-opacity:1"/></linearGradient>
        <linearGradient id="_Linear6" x1="0" y1="0" x2="1" y2="0" gradientUnits="userSpaceOnUse" gradientTransform="matrix(103.769,0,0,27.5252,1426.69,718.864)"><stop offset="0" style="stop-color:rgb(131,211,230);stop-opacity:1"/><stop offset="0.01" style="stop-color:rgb(119,100,172);stop-opacity:1"/><stop offset="1" style="stop-color:rgb(168,73,155);stop-opacity:1"/></linearGradient>
        <linearGradient id="_Linear7" x1="0" y1="0" x2="1" y2="0" gradientUnits="userSpaceOnUse" gradientTransform="matrix(103.769,0,0,27.5252,1426.69,718.864)"><stop offset="0" style="stop-color:rgb(131,211,230);stop-opacity:1"/><stop offset="0.01" style="stop-color:rgb(119,100,172);stop-opacity:1"/><stop offset="1" style="stop-color:rgb(168,73,155);stop-opacity:1"/></linearGradient>
        <linearGradient id="_Linear8" x1="0" y1="0" x2="1" y2="0" gradientUnits="userSpaceOnUse" gradientTransform="matrix(103.769,0,0,27.5252,1426.69,718.864)"><stop offset="0" style="stop-color:rgb(131,211,230);stop-opacity:1"/><stop offset="0.01" style="stop-color:rgb(119,100,172);stop-opacity:1"/><stop offset="1" style="stop-color:rgb(168,73,155);stop-opacity:1"/></linearGradient>
        <linearGradient id="_Linear9" x1="0" y1="0" x2="1" y2="0" gradientUnits="userSpaceOnUse" gradientTransform="matrix(103.769,0,0,27.5252,1426.69,718.864)"><stop offset="0" style="stop-color:rgb(131,211,230);stop-opacity:1"/><stop offset="0.01" style="stop-color:rgb(119,100,172);stop-opacity:1"/><stop offset="1" style="stop-color:rgb(168,73,155);stop-opacity:1"/></linearGradient>
        <linearGradient id="_Linear10" x1="0" y1="0" x2="1" y2="0" gradientUnits="userSpaceOnUse" gradientTransform="matrix(43.4685,0,0,43.4685,861.456,568.549)"><stop offset="0" style="stop-color:rgb(131,211,230);stop-opacity:1"/><stop offset="0.51" style="stop-color:rgb(119,100,172);stop-opacity:1"/><stop offset="1" style="stop-color:rgb(168,73,155);stop-opacity:1"/></linearGradient>
        <linearGradient id="_Linear12" x1="0" y1="0" x2="1" y2="0" gradientUnits="userSpaceOnUse" gradientTransform="matrix(43.4685,0,0,43.4685,861.456,568.549)"><stop offset="0" style="stop-color:rgb(131,211,230);stop-opacity:1"/><stop offset="0.51" style="stop-color:rgb(119,100,172);stop-opacity:1"/><stop offset="1" style="stop-color:rgb(168,73,155);stop-opacity:1"/></linearGradient>
    </defs>
</svg>
